<svg width="60" height="83" viewBox="0 0 60 83" fill="none" xmlns="http://www.w3.org/2000/svg">
<g clip-path="url(#clip0_2_235)">
<path d="M59.2203 0.245361L40.9031 21.0117L18.7016 21.0485L0.302556 0.245361V41.8925C0.299319 41.9425 0.308859 42.091 0.331177 42.3382C0.366967 42.634 0.478195 42.9156 0.654182 43.1559L29.7573 82.6901L58.836 43.1559C59.0119 42.9156 59.1232 42.634 59.159 42.3382C59.1885 42.1343 59.2089 28.1033 59.2203 0.245361Z" fill="white"/>
<path d="M33.2123 75.2234L31.9857 73.821L41.2793 23.698L57.3927 42.326L33.2123 75.2234Z" fill="#222222"/>
<path d="M26.3066 75.2234L2.11798 42.3382L18.2314 23.7102L27.525 73.8373L26.3066 75.2234Z" fill="#222222"/>
<path d="M47.8129 43.1233L39.6519 52.5068L38.3436 46.7499L47.8129 43.1233Z" fill="white"/>
</g>
<defs>
<clipPath id="clip0_2_235">
<rect width="59.2857" height="83" fill="white"/>
</clipPath>
</defs>
</svg>
