<svg width="61" height="37" viewBox="0 0 61 37" fill="none" xmlns="http://www.w3.org/2000/svg">
<path d="M59.9868 4.39739L60.8453 3.79649L59.9868 3.19558C57.154 1.22119 53.8061 0.105225 50.3724 0.105225H44.02C42.0456 0.105225 40.157 0.448595 38.2685 1.13534L31.0576 3.79649L38.2685 6.45764C40.0712 7.14438 42.0456 7.48775 44.02 7.48775H50.3724C53.8061 7.48775 57.154 6.37179 59.9868 4.39739Z" fill="#E2E2E2"/>
<path d="M59.9868 12.4672L60.8453 11.8663L59.9868 11.2654C57.154 9.29101 53.8061 8.17505 50.3724 8.17505H44.02C42.0456 8.17505 40.157 8.51842 38.2685 9.20517L31.0576 11.8663L38.2685 14.5275C40.0712 15.2142 42.0456 15.5576 44.02 15.5576H50.3724C53.8061 15.5576 57.154 14.5275 59.9868 12.4672Z" fill="#E2E2E2"/>
<path d="M1.09745 11.2654L0.239014 11.8663L1.09745 12.4672C3.93028 14.4416 7.27818 15.5576 10.7119 15.5576H17.0643C19.0387 15.5576 20.9273 15.2142 22.8158 14.5275L30.0267 11.8663L22.8158 9.20517C21.0131 8.51842 19.0387 8.17505 17.0643 8.17505H10.7119C7.19234 8.17505 3.84444 9.29101 1.09745 11.2654Z" fill="#E2E2E2"/>
<path d="M59.9868 20.6215L60.8453 20.0206L59.9868 19.4197C57.154 17.4453 53.8061 16.3293 50.3724 16.3293H44.02C42.0456 16.3293 40.157 16.6727 38.2685 17.3595L31.0576 20.0206L38.2685 22.6818C40.0712 23.3685 42.0456 23.7119 44.02 23.7119H50.3724C53.8061 23.7119 57.154 22.5959 59.9868 20.6215Z" fill="#E2E2E2"/>
<path d="M1.09745 19.4197L0.239014 20.0206L1.09745 20.6215C3.93028 22.5959 7.27818 23.7119 10.7119 23.7119H17.0643C19.0387 23.7119 20.9273 23.3685 22.8158 22.6818L30.0267 20.0206L22.8158 17.3595C21.0131 16.6727 19.0387 16.3293 17.0643 16.3293H10.7119C7.19234 16.3293 3.84444 17.3595 1.09745 19.4197Z" fill="#E2E2E2"/>
<path d="M1.09745 3.19558L0.239014 3.79649L1.09745 4.39739C3.93028 6.37179 7.27818 7.48775 10.7119 7.48775H17.0643C19.0387 7.48775 20.9273 7.14438 22.8158 6.45764L30.0267 3.79649L22.8158 1.13534C21.0131 0.448595 19.0387 0.105225 17.0643 0.105225H10.7119C7.19234 0.105225 3.84444 1.22119 1.09745 3.19558Z" fill="#E2E2E2"/>
<path d="M31.3132 3.79565H29.6821V36.2444H31.3132V3.79565Z" fill="#E2E2E2"/>
</svg>
