<svg width="49" height="50" viewBox="0 0 49 50" fill="none" xmlns="http://www.w3.org/2000/svg">
<path d="M34.6296 14.7476L28.363 7.10754L26.6462 4.27471L28.0197 0.755127L19.6929 7.79428L25.9594 15.3485L27.6763 18.1813L26.3028 21.7009L34.6296 14.7476Z" fill="#F0F0F0"/>
<path d="M22.5235 11.3143L12.7374 11.4859L9.4753 11.0567L7.67261 7.79468L7.93013 18.6968L17.7163 18.5251L20.9783 18.9543L22.781 22.2164L22.5235 11.3143Z" fill="#F0F0F0"/>
<path d="M12.3044 18.6965L6.38126 26.5083L4.06348 28.9119L0.286377 28.311L8.95656 34.8351L14.8798 27.0233L17.1975 24.7056L20.9746 25.3065L12.3044 18.6965Z" fill="#F0F0F0"/>
<path d="M11.7104 31.315L14.0281 40.8436L14.4574 44.1056L11.6245 46.6809L22.0974 43.9339L19.6938 34.4053L19.2646 31.1433L22.0974 28.6538L11.7104 31.315Z" fill="#F0F0F0"/>
<path d="M21.147 39.6418L29.9889 43.7622L32.8217 45.565L33.0792 49.3421L37.4572 39.3842L28.5295 35.2638L25.6967 33.5469L25.4391 29.7698L21.147 39.6418Z" fill="#F0F0F0"/>
<path d="M33.5076 37.4101L42.2637 33.0321L45.354 31.9161L48.4444 34.0622L43.4655 24.4478L34.7095 28.8258L31.5332 29.9417L28.4429 27.7956L33.5076 37.4101Z" fill="#F0F0F0"/>
<path d="M39.5147 26.337L41.4891 16.7225L42.6051 13.5463L46.2105 12.5162L35.5659 10.3701L33.5915 19.9846L32.4755 23.1608L28.8701 24.1909L39.5147 26.337Z" fill="#F0F0F0"/>
</svg>
