<svg width="39" height="38" viewBox="0 0 39 38" fill="none" xmlns="http://www.w3.org/2000/svg">
<path d="M22.6362 28.9537C19.6317 27.8377 16.5413 27.666 13.7085 28.4386C11.7341 28.9537 9.84556 29.9838 8.12869 31.2715L6.92686 32.3016L6.5835 32.645L7.35608 33.3317C7.44192 33.3317 7.44194 33.4175 7.52778 33.5034C7.69947 33.6751 7.87116 33.7609 8.12869 33.9326L8.64373 34.276L9.1588 33.8468C9.24464 33.7609 9.41633 33.5892 9.58801 33.5034C11.1332 32.2157 12.8501 31.3573 14.6528 30.9281C16.9705 30.3272 19.46 30.413 21.9495 31.3573C24.0097 32.1299 28.216 33.0742 33.2808 30.9281L33.4525 30.8422L33.71 30.5847C33.71 30.4989 33.7959 30.4989 33.8817 30.413C34.3109 29.898 34.7401 29.3829 35.0835 28.782L36.8004 26.1208L34.0534 27.666C30.0187 29.8979 26.3275 30.3272 22.6362 28.9537Z" fill="#E2E2E2"/>
<path d="M10.8641 19.6833C13.1819 19.0824 15.6713 19.1682 18.1608 20.1125C20.9078 21.1426 27.9469 22.602 35.8445 15.477L37.1322 14.1893L37.218 14.1035L37.5614 13.7601L37.3897 13.3309C37.3038 12.9875 37.1322 12.5583 36.9605 12.1291L36.5313 10.9272L35.6728 11.7857C35.587 11.9574 35.4153 12.0432 35.2436 12.2149C31.4665 16.0778 25.6291 20.0267 18.9334 17.623C15.9288 16.5071 12.8385 16.3354 10.0057 17.108C7.25867 17.8806 4.85505 19.3399 2.62312 21.4001V21.3143L1.33547 22.6878C1.33547 22.7736 1.24964 22.7737 1.1638 22.8595L0.90625 23.117L0.992099 23.4604C1.07794 23.8896 1.24962 24.3188 1.33547 24.748L1.85053 26.1215L2.70897 25.0056C2.79481 24.8339 2.96649 24.7481 3.05233 24.5764C4.85505 22.9453 7.34451 20.6276 10.8641 19.6833Z" fill="#E2E2E2"/>
<path d="M2.53927 18.1383C4.51366 16.078 6.74557 14.7904 9.14919 14.1036C11.467 13.5027 13.9564 13.5886 16.4459 14.5329C24.1718 17.3657 30.8676 12.7301 33.7862 10.2407L34.9022 9.12473L35.3314 8.78134L34.988 8.2663C34.7305 8.00877 34.5588 7.66539 34.3013 7.32202L33.7862 6.63525L33.1853 7.23617C33.0995 7.32201 32.9278 7.49369 32.842 7.57954C29.2365 11.0133 23.6567 14.5329 17.3043 12.1293C14.2998 11.0133 11.2094 10.8416 8.3766 11.6142C6.57389 12.1292 4.85702 12.9877 3.14015 14.1036L1.33744 15.563C1.16575 15.7347 1.07991 15.8205 0.908221 15.9922L0.73655 16.1639V16.4214C0.650706 17.0223 0.650696 17.6232 0.564853 18.1383L0.479004 20.2844L1.93835 18.7392C2.11004 18.5675 2.28174 18.31 2.53927 18.1383Z" fill="#E2E2E2"/>
<path d="M25.1114 34.7918L24.9397 35.3069L25.1114 34.7918C24.8538 34.706 24.6821 34.6201 24.4246 34.5343C21.4201 33.4183 18.3297 33.2467 15.4969 34.0193C14.896 34.1909 14.2951 34.3626 13.6942 34.6202L11.6339 35.5644L11.1189 35.822L12.8358 36.4229C13.3508 36.5946 13.8659 36.7662 14.3809 36.9379L14.6385 37.0238L14.896 36.9379C15.1535 36.8521 15.4111 36.6804 15.6686 36.6804C15.8403 36.6804 16.012 36.5946 16.1837 36.5087C18.2439 35.9937 20.4758 35.9936 22.8794 36.7662C23.137 36.8521 23.3087 36.9379 23.5662 37.0238L23.9954 37.1955L24.2529 37.1096C24.8538 36.9379 25.5406 36.7662 26.0556 36.5087L28.4592 35.6503L25.9698 35.0494C25.7123 34.9635 25.3689 34.8777 25.1114 34.7918Z" fill="#E2E2E2"/>
<path d="M38.2517 17.0226L36.9641 18.3102C36.7924 18.4819 36.6207 18.6536 36.449 18.8253C32.9294 22.1732 27.2638 25.7786 20.9114 23.375C17.9068 22.259 14.8165 22.0874 11.9837 22.8599C9.32252 23.6325 6.91888 25.006 4.7728 27.0663L3.65684 28.2681L3.31348 28.6973L3.65684 29.2124C3.91437 29.5557 4.08607 29.8133 4.25776 30.1566L4.7728 30.9292L5.37371 30.1566C5.45956 30.0708 5.63124 29.8991 5.71708 29.8132C7.77732 27.5813 10.0092 26.2078 12.5846 25.5211C14.9023 24.9202 17.3918 25.006 19.8812 25.9503C22.0273 26.7229 24.2593 26.9804 26.4912 26.7229C30.44 26.2937 34.3888 24.0618 37.3075 21.5723C37.4791 21.4006 37.6508 21.3148 37.8225 21.1431L38.08 20.8855V20.628C38.08 20.113 38.1659 19.5121 38.1659 18.997L38.2517 17.0226Z" fill="#E2E2E2"/>
<path d="M5.63266 9.12443L5.37514 8.60936L5.63266 9.12443C6.14772 8.8669 6.74865 8.6952 7.26371 8.52351C9.58148 7.92261 12.0709 8.00845 14.5604 8.95273C16.1914 9.55363 17.8224 9.81116 19.6251 9.81116C23.2306 9.81116 26.836 8.52352 30.1839 6.03406L31.4715 5.00393L31.9007 4.66056L31.1282 4.05965C30.8706 3.80212 30.5272 3.5446 30.1839 3.37291L29.6688 3.02954L29.2396 3.37291C29.0679 3.45875 28.9821 3.63043 28.8104 3.71628C24.2607 7.15001 19.711 8.0943 15.4188 6.46328C12.3285 5.34731 9.23809 5.08978 6.14773 6.03406C5.8902 6.1199 5.63267 6.20574 5.28929 6.29158L5.11762 6.37743L4.86008 6.63495C4.86008 6.72079 4.77425 6.7208 4.6884 6.80664C4.34503 7.3217 3.9158 7.75093 3.57243 8.26599L1.94141 10.7554L4.60256 9.38195C5.03177 9.38195 5.37513 9.21027 5.63266 9.12443Z" fill="#E2E2E2"/>
<path d="M12.6745 3.28701L12.932 3.37286C14.048 3.80208 15.7649 4.23129 17.9109 4.23129C20.1429 4.23129 22.289 3.71623 24.435 2.85779L27.0962 1.57014L25.2935 0.969256C24.7784 0.797569 24.2633 0.625882 23.6624 0.540039H23.4049L23.1474 0.625861C22.8899 0.711705 22.6323 0.883413 22.3748 0.969256C19.7995 1.91353 17.2242 2.08522 14.7347 1.39847C14.4772 1.31263 14.2197 1.22677 13.9621 1.14093L13.7046 1.05508L13.4471 1.14093C12.932 1.31261 12.417 1.48431 11.9019 1.74184L9.92749 2.60027L11.9878 3.20116C12.1594 3.11532 12.417 3.20117 12.6745 3.28701Z" fill="#E2E2E2"/>
</svg>
