<svg width="39" height="43" viewBox="0 0 39 43" fill="none" xmlns="http://www.w3.org/2000/svg">
<path d="M21.6269 28.8392C21.6269 24.1178 25.4898 20.3407 30.2112 20.3407H33.3874C36.0485 20.3407 38.1946 18.1946 38.1946 15.5335H30.2112C29.5244 15.5335 28.8377 15.6193 28.2368 15.7052C26.7775 15.8768 26.3482 13.8166 27.7217 13.3874C28.4943 13.1299 29.3528 13.044 30.2112 13.044H33.3874C36.0485 13.044 38.1946 10.8979 38.1946 8.23678H30.2112C29.3528 8.23678 28.5802 8.32263 27.8076 8.49432C26.4341 8.75185 25.8332 6.77744 27.2067 6.26238C28.151 5.91901 29.1811 5.66148 30.297 5.66148H33.3874C36.0485 5.66148 38.1946 3.51539 38.1946 0.854248H30.297C22.9145 0.854248 16.7338 6.77745 16.8196 14.0741C16.9055 18.8814 13.0425 22.7443 8.23529 22.7443H5.23078C2.56963 22.7443 0.423546 24.8904 0.423546 27.5515H8.14945C9.00788 27.5515 9.78047 27.4657 10.5531 27.294C11.9266 27.0365 12.5275 29.0109 11.154 29.5259C10.2097 29.8693 9.17957 30.1268 8.06361 30.1268H5.05909C2.39794 30.1268 0.251859 32.2729 0.251859 34.9341H7.97776C8.66451 34.9341 9.35126 34.8482 9.95216 34.7624C11.4115 34.5907 11.8407 36.6509 10.4672 37.0801C9.69463 37.3377 8.8362 37.4235 7.97776 37.4235H4.97324C2.3121 37.4235 0.166016 39.5696 0.166016 42.2308H7.89192C15.6178 42.2308 21.6269 36.2217 21.6269 28.8392Z" fill="#E2E2E2"/>
</svg>
