<svg width="96" height="107" viewBox="0 0 96 107" fill="none" xmlns="http://www.w3.org/2000/svg">
<g filter="url(#filter0_d_7_267)">
<g filter="url(#filter1_d_7_267)">
<path d="M94 13.9393V23.2322C94 31.8585 90.514 40.1314 84.3088 46.2311C78.1037 52.3308 69.6877 55.7575 60.9123 55.7575H56.1855V60.404H79.8196V92.9292C79.8196 95.3939 78.8236 97.7576 77.0507 99.5003C75.2778 101.243 72.8732 102.222 70.3659 102.222H32.5514C30.0441 102.222 27.6396 101.243 25.8667 99.5003C24.0938 97.7576 23.0978 95.3939 23.0978 92.9292V60.404H46.7318V46.4646C46.7318 37.8383 50.2179 29.5654 56.423 23.4657C62.6282 17.3661 71.0442 13.9393 79.8196 13.9393H94ZM20.7344 9.29285C26.4064 9.28833 31.9966 10.6235 37.0341 13.186C42.0717 15.7485 46.4091 19.4632 49.6814 24.0175C44.6869 30.4695 41.9895 38.357 42.005 46.4646V51.1111H39.6416C30.2394 51.1111 21.2223 47.4395 14.5739 40.9042C7.92551 34.3688 4.19049 25.5049 4.19049 16.2626V9.29285H20.7344Z" fill="white"/>
</g>
<g clip-path="url(#clip0_7_267)">
<path d="M94 13.9394V23.2323C94 31.8586 90.514 40.1315 84.3089 46.2312C78.1037 52.3308 69.6877 55.7576 60.9123 55.7576H56.1855V60.4041H79.8196V92.9293C79.8196 95.394 78.8236 97.7577 77.0507 99.5004C75.2778 101.243 72.8732 102.222 70.3659 102.222H32.5514C30.0441 102.222 27.6396 101.243 25.8667 99.5004C24.0938 97.7577 23.0978 95.394 23.0978 92.9293V60.4041H46.7318V46.4647C46.7318 37.8384 50.2179 29.5655 56.423 23.4658C62.6282 17.3661 71.0442 13.9394 79.8196 13.9394H94ZM20.7344 9.29292C26.4064 9.2884 31.9966 10.6236 37.0341 13.1861C42.0717 15.7486 46.4092 19.4633 49.6814 24.0176C44.6869 30.4696 41.9895 38.3571 42.005 46.4647V51.1111H39.6416C30.2394 51.1111 21.2223 47.4396 14.5739 40.9042C7.92551 34.3689 4.19049 25.505 4.19049 16.2626V9.29292H20.7344Z" fill="#7DA85D"/>
</g>
<g clip-path="url(#clip1_7_267)">
<path d="M94.0001 13.9394V23.2323C94.0001 31.8586 90.5141 40.1315 84.3089 46.2312C78.1038 52.3308 69.6878 55.7576 60.9124 55.7576H56.1855V60.4041H79.8196V92.9293C79.8196 95.394 78.8236 97.7577 77.0507 99.5004C75.2778 101.243 72.8733 102.222 70.366 102.222H32.5515C30.0442 102.222 27.6396 101.243 25.8667 99.5004C24.0938 97.7577 23.0978 95.394 23.0978 92.9293V60.4041H46.7319V46.4647C46.7319 37.8384 50.2179 29.5655 56.4231 23.4658C62.6282 17.3661 71.0442 13.9394 79.8196 13.9394H94.0001ZM20.7344 9.29292C26.4065 9.2884 31.9966 10.6236 37.0342 13.1861C42.0717 15.7486 46.4092 19.4633 49.6814 24.0176C44.6869 30.4696 41.9896 38.3571 42.0051 46.4647V51.1111H39.6417C30.2395 51.1111 21.2223 47.4396 14.5739 40.9042C7.92557 34.3689 4.19055 25.505 4.19055 16.2626V9.29292H20.7344Z" fill="#7DA85D"/>
</g>
</g>
<defs>
<filter id="filter0_d_7_267" x="0" y="0" width="96" height="106.222" filterUnits="userSpaceOnUse" color-interpolation-filters="sRGB">
<feFlood flood-opacity="0" result="BackgroundImageFix"/>
<feColorMatrix in="SourceAlpha" type="matrix" values="0 0 0 0 0 0 0 0 0 0 0 0 0 0 0 0 0 0 127 0" result="hardAlpha"/>
<feOffset dy="2"/>
<feGaussianBlur stdDeviation="1"/>
<feComposite in2="hardAlpha" operator="out"/>
<feColorMatrix type="matrix" values="0 0 0 0 0 0 0 0 0 0 0 0 0 0 0 0 0 0 0.25 0"/>
<feBlend mode="normal" in2="BackgroundImageFix" result="effect1_dropShadow_7_267"/>
<feBlend mode="normal" in="SourceGraphic" in2="effect1_dropShadow_7_267" result="shape"/>
</filter>
<filter id="filter1_d_7_267" x="3.19049" y="9.29284" width="91.8095" height="96.9293" filterUnits="userSpaceOnUse" color-interpolation-filters="sRGB">
<feFlood flood-opacity="0" result="BackgroundImageFix"/>
<feColorMatrix in="SourceAlpha" type="matrix" values="0 0 0 0 0 0 0 0 0 0 0 0 0 0 0 0 0 0 127 0" result="hardAlpha"/>
<feOffset dy="3"/>
<feGaussianBlur stdDeviation="0.5"/>
<feComposite in2="hardAlpha" operator="out"/>
<feColorMatrix type="matrix" values="0 0 0 0 0 0 0 0 0 0 0 0 0 0 0 0 0 0 0.25 0"/>
<feBlend mode="normal" in2="BackgroundImageFix" result="effect1_dropShadow_7_267"/>
<feBlend mode="normal" in="SourceGraphic" in2="effect1_dropShadow_7_267" result="shape"/>
</filter>
<clipPath id="clip0_7_267">
<rect width="43.2331" height="58.1375" fill="white" transform="translate(2)"/>
</clipPath>
<clipPath id="clip1_7_267">
<rect width="14.1805" height="31.9586" fill="white" transform="translate(36.2407)"/>
</clipPath>
</defs>
</svg>
