<svg width="170" height="55" viewBox="0 0 170 55" fill="none" xmlns="http://www.w3.org/2000/svg">
<rect y="22" width="9.59998" height="11" fill="#E32454"/>
<rect x="28.7999" y="33" width="9.6" height="11" transform="rotate(180 28.7999 33)" fill="#E32454"/>
<path d="M9.6001 22L19.2001 11V22L9.6001 33V22Z" fill="#FF95AF"/>
<path d="M19.2 33L9.59997 44L9.59997 33L19.2 22L19.2 33Z" fill="#FB5881"/>
<path d="M0 22L19.2 0V11L9.59998 22H0Z" fill="#FF3366"/>
<path d="M28.7999 33L9.59995 55L9.59995 44L19.1999 33L28.7999 33Z" fill="#E32454"/>
<path d="M50.728 38.0892C49.216 38.0892 47.7507 37.8432 46.332 37.3513C44.932 36.8593 43.8213 36.2069 43 35.3942L44.26 32.1538C45.0627 32.881 46.0427 33.4799 47.2 33.9504C48.376 34.3996 49.552 34.6242 50.728 34.6242C52.184 34.6242 53.2667 34.3568 53.976 33.8221C54.704 33.2874 55.068 32.5815 55.068 31.7046C55.068 31.0629 54.8627 30.5389 54.452 30.1325C54.06 29.7047 53.556 29.3732 52.94 29.1379C52.324 28.9026 51.484 28.6353 50.42 28.3358C48.9267 27.9294 47.7133 27.5231 46.78 27.1167C45.8653 26.7103 45.072 26.0793 44.4 25.2237C43.7467 24.3468 43.42 23.1704 43.42 21.6946C43.42 20.454 43.7093 19.3311 44.288 18.3258C44.8853 17.2992 45.772 16.4864 46.948 15.8875C48.1427 15.2886 49.5987 14.9892 51.316 14.9892C52.5107 14.9892 53.6867 15.1603 54.844 15.5025C56.0013 15.8447 57 16.3367 57.84 16.9783L56.692 20.2187C55.8333 19.6412 54.9373 19.2028 54.004 18.9033C53.0707 18.6039 52.1653 18.4542 51.288 18.4542C49.8507 18.4542 48.7773 18.7322 48.068 19.2883C47.3773 19.8444 47.032 20.5824 47.032 21.5021C47.032 22.1437 47.228 22.6678 47.62 23.0742C48.0307 23.4806 48.544 23.8014 49.16 24.0367C49.776 24.2719 50.616 24.5393 51.68 24.8387C53.136 25.2238 54.3307 25.6301 55.264 26.0579C56.1973 26.4643 56.9907 27.0953 57.644 27.9508C58.316 28.8064 58.652 29.9614 58.652 31.4158C58.652 32.6564 58.3533 33.7793 57.756 34.7846C57.1773 35.7899 56.2907 36.5919 55.096 37.1908C53.9013 37.7897 52.4453 38.0892 50.728 38.0892Z" fill="white"/>
<path d="M61.9254 20.6358H65.4254V37.7683H61.9254V20.6358ZM63.6894 17.8125C63.0547 17.8125 62.5227 17.5879 62.0934 17.1388C61.664 16.6682 61.4494 16.0907 61.4494 15.4062C61.4494 14.7218 61.664 14.155 62.0934 13.7058C62.5227 13.2353 63.0547 13 63.6894 13C64.324 13 64.856 13.2246 65.2854 13.6737C65.7147 14.1015 65.9294 14.6469 65.9294 15.31C65.9294 16.0158 65.7147 16.6147 65.2854 17.1067C64.8747 17.5772 64.3427 17.8125 63.6894 17.8125Z" fill="white"/>
<path d="M74.6391 37.9929C73.4258 37.9929 72.2404 37.8111 71.0831 37.4475C69.9258 37.0839 69.0018 36.624 68.3111 36.0679L69.6551 33.02C70.3271 33.5333 71.1298 33.9504 72.0631 34.2713C73.0151 34.5707 73.9484 34.7204 74.8631 34.7204C76.9538 34.7204 77.9991 34.0894 77.9991 32.8275C77.9991 32.2286 77.7284 31.8115 77.1871 31.5763C76.6644 31.341 75.8151 31.1164 74.6391 30.9025C73.4071 30.6886 72.3991 30.4426 71.6151 30.1646C70.8498 29.8865 70.1778 29.4053 69.5991 28.7208C69.0391 28.015 68.7591 27.0418 68.7591 25.8013C68.7591 24.1757 69.3471 22.8817 70.5231 21.9192C71.7178 20.9353 73.3231 20.4433 75.3391 20.4433C76.3658 20.4433 77.3924 20.5824 78.4191 20.8604C79.4458 21.1171 80.2858 21.47 80.9391 21.9192L79.5951 24.9671C78.3258 24.1115 76.8978 23.6838 75.3111 23.6838C74.2844 23.6838 73.5004 23.8656 72.9591 24.2292C72.4364 24.5714 72.1751 25.0312 72.1751 25.6088C72.1751 26.2504 72.4551 26.7103 73.0151 26.9883C73.5938 27.245 74.4804 27.491 75.6751 27.7262C76.8698 27.9401 77.8498 28.1861 78.6151 28.4642C79.3804 28.7422 80.0338 29.2128 80.5751 29.8758C81.1351 30.5389 81.4151 31.48 81.4151 32.6992C81.4151 34.3033 80.8084 35.5867 79.5951 36.5492C78.3818 37.5117 76.7298 37.9929 74.6391 37.9929Z" fill="white"/>
<path d="M98.1558 20.6358L91.1558 39.1479C90.5025 41.0088 89.7092 42.3135 88.7758 43.0621C87.8425 43.8321 86.7132 44.2171 85.3878 44.2171C84.6412 44.2171 83.9038 44.0781 83.1758 43.8C82.4478 43.5219 81.8505 43.1369 81.3838 42.645L82.7838 39.6933C83.1198 40.0569 83.5118 40.3457 83.9598 40.5596C84.4265 40.7735 84.8932 40.8804 85.3598 40.8804C85.9758 40.8804 86.4798 40.6986 86.8718 40.335C87.2825 39.9714 87.6558 39.3618 87.9918 38.5063L88.2438 37.8325L81.7198 20.6358H85.3598L90.0638 33.3088L94.7958 20.6358H98.1558Z" fill="white"/>
<path d="M108.631 20.4433C110.087 20.4433 111.385 20.8069 112.523 21.5342C113.681 22.2614 114.586 23.2881 115.239 24.6142C115.893 25.9403 116.219 27.4696 116.219 29.2021C116.219 30.9346 115.893 32.4746 115.239 33.8221C114.586 35.1482 113.681 36.1749 112.523 36.9021C111.385 37.6293 110.087 37.9929 108.631 37.9929C106.615 37.9929 105.019 37.2229 103.843 35.6829V43.9925H100.343V20.6358H103.675V22.8817C104.254 22.0689 104.963 21.4593 105.803 21.0529C106.662 20.6465 107.605 20.4433 108.631 20.4433ZM108.239 34.56C109.527 34.56 110.582 34.0681 111.403 33.0842C112.243 32.1003 112.663 30.8063 112.663 29.2021C112.663 27.5979 112.243 26.3039 111.403 25.32C110.582 24.3361 109.527 23.8442 108.239 23.8442C107.399 23.8442 106.643 24.0688 105.971 24.5179C105.299 24.9457 104.767 25.566 104.375 26.3787C103.983 27.1915 103.787 28.1326 103.787 29.2021C103.787 30.2715 103.983 31.2126 104.375 32.0254C104.767 32.8382 105.299 33.4692 105.971 33.9183C106.643 34.3461 107.399 34.56 108.239 34.56Z" fill="white"/>
<path d="M128.023 20.4433C129.908 20.4433 131.42 21.0743 132.559 22.3362C133.697 23.5982 134.267 25.4697 134.267 27.9508V37.7683H130.767V28.4642C130.767 26.9669 130.459 25.844 129.843 25.0954C129.227 24.3254 128.349 23.9404 127.211 23.9404C125.923 23.9404 124.905 24.3896 124.159 25.2879C123.412 26.1649 123.039 27.4375 123.039 29.1058V37.7683H119.539V13.9625H123.039V22.625C123.617 21.9192 124.327 21.3844 125.167 21.0208C126.025 20.6358 126.977 20.4433 128.023 20.4433Z" fill="white"/>
<path d="M153.183 20.6358V37.7683H149.851V35.5867C149.291 36.3567 148.591 36.9556 147.751 37.3833C146.911 37.7897 146.005 37.9929 145.035 37.9929C143.037 37.9929 141.46 37.3619 140.303 36.1C139.164 34.8167 138.595 32.9237 138.595 30.4212V20.6358H142.095V29.8758C142.095 31.4158 142.393 32.5708 142.991 33.3408C143.607 34.0894 144.475 34.4638 145.595 34.4638C146.845 34.4638 147.835 34.0253 148.563 33.1483C149.309 32.25 149.683 30.9667 149.683 29.2983V20.6358H153.183Z" fill="white"/>
<path d="M162.385 37.9929C161.172 37.9929 159.987 37.8111 158.829 37.4475C157.672 37.0839 156.748 36.624 156.057 36.0679L157.401 33.02C158.073 33.5333 158.876 33.9504 159.809 34.2713C160.761 34.5707 161.694 34.7204 162.609 34.7204C164.7 34.7204 165.745 34.0894 165.745 32.8275C165.745 32.2286 165.475 31.8115 164.933 31.5763C164.41 31.341 163.561 31.1164 162.385 30.9025C161.153 30.6886 160.145 30.4426 159.361 30.1646C158.596 29.8865 157.924 29.4053 157.345 28.7208C156.785 28.015 156.505 27.0418 156.505 25.8013C156.505 24.1757 157.093 22.8817 158.269 21.9192C159.464 20.9353 161.069 20.4433 163.085 20.4433C164.112 20.4433 165.138 20.5824 166.165 20.8604C167.192 21.1171 168.032 21.47 168.685 21.9192L167.341 24.9671C166.072 24.1115 164.644 23.6838 163.057 23.6838C162.03 23.6838 161.246 23.8656 160.705 24.2292C160.183 24.5714 159.921 25.0312 159.921 25.6088C159.921 26.2504 160.201 26.7103 160.761 26.9883C161.34 27.245 162.227 27.491 163.421 27.7262C164.616 27.9401 165.596 28.1861 166.361 28.4642C167.126 28.7422 167.78 29.2128 168.321 29.8758C168.881 30.5389 169.161 31.48 169.161 32.6992C169.161 34.3033 168.554 35.5867 167.341 36.5492C166.128 37.5117 164.476 37.9929 162.385 37.9929Z" fill="white"/>
</svg>
